<svg width="40" height="40" viewBox="0 0 40 40" fill="none" xmlns="http://www.w3.org/2000/svg">
<g clip-path="url(#clip0_151_26)">
<path d="M19.595 28.2198C19.6903 28.1623 19.8097 28.1623 19.905 28.2198L29.1838 33.8201C29.411 33.9572 29.6913 33.7535 29.631 33.4951L27.1686 22.9401C27.1433 22.8316 27.1802 22.7181 27.2644 22.6452L35.4626 15.5431C35.6632 15.3693 35.5559 15.0398 35.2915 15.0174L24.4965 14.1015C24.3856 14.0921 24.2891 14.0221 24.2457 13.9197L20.0262 3.96421C19.9228 3.7203 19.5772 3.7203 19.4738 3.96421L15.2543 13.9197C15.2109 14.0221 15.1144 14.0921 15.0035 14.1015L4.20849 15.0174C3.94406 15.0398 3.83684 15.3693 4.03742 15.5431L12.2356 22.6452C12.3198 22.7181 12.3567 22.8316 12.3314 22.9401L9.86903 33.4951C9.80874 33.7535 10.089 33.9572 10.3162 33.8201L19.595 28.2198Z" fill="#FFE100"/>
</g>
<defs>
<clipPath id="clip0_151_26">
<rect width="39" height="39" fill="white" transform="translate(0.25 0.0625)"/>
</clipPath>
</defs>
</svg>
