<svg width="40" height="40" viewBox="0 0 40 40" fill="none" xmlns="http://www.w3.org/2000/svg">
<g clip-path="url(#clip0_151_19)">
<path d="M35.4647 15.5421C35.6649 15.3683 35.5579 15.0394 35.2939 15.0166L24.4961 14.0855C24.3854 14.076 24.2891 14.0061 24.2457 13.9038L20.0264 3.96357C19.9229 3.71979 19.5773 3.71988 19.474 3.96372L15.2543 13.9197C15.2109 14.0221 15.1144 14.0921 15.0035 14.1015L4.20849 15.0174C3.94406 15.0398 3.83684 15.3693 4.03742 15.5431L12.2356 22.6452C12.3198 22.7181 12.3567 22.8316 12.3314 22.9401L9.86903 33.4951C9.80874 33.7535 10.089 33.9572 10.3162 33.8201L19.595 28.2198C19.6903 28.1623 19.8097 28.1623 19.905 28.2198L29.1849 33.8208C29.412 33.9578 29.6921 33.7545 29.6322 33.4962L27.1845 22.9397C27.1594 22.8314 27.1962 22.7182 27.2802 22.6454L35.4647 15.5421ZM19.8948 25.175C19.8049 25.1207 19.75 25.0233 19.75 24.9183V11.4534C19.75 11.1264 20.1988 11.0354 20.3263 11.3365L22.4584 16.3737C22.5017 16.476 22.598 16.546 22.7087 16.5556L28.9404 17.0963C29.2044 17.1192 29.3113 17.4481 29.1111 17.6218L24.388 21.7189C24.3039 21.7918 24.2671 21.9054 24.2924 22.0138L25.7142 28.099C25.7746 28.3576 25.4941 28.5614 25.2668 28.4239L19.8948 25.175Z" fill="#FFE100"/>
</g>
<defs>
<clipPath id="clip0_151_19">
<rect width="39" height="39" fill="white" transform="translate(0.25 0.0625)"/>
</clipPath>
</defs>
</svg>
